HIERARCHY
ROOT hip
{
	OFFSET 0.000000 0.000000 0.000000 
	CHANNELS 6 Xposition Yposition Zposition Xrotation Zrotation Yrotation
	JOINT abdomen
	{
		OFFSET 0.000000 3.402643 0.000000 
		CHANNELS 3 Xrotation Zrotation Yrotation
		JOINT chest
		{
			OFFSET 0.000000 8.438565 -0.680529 
			CHANNELS 3 Xrotation Zrotation Yrotation
			JOINT neck
			{
				OFFSET 0.000000 10.207942 -0.272212 
				CHANNELS 3 Xrotation Zrotation Yrotation
				JOINT head
				{
					OFFSET 0.000000 3.130431 0.000000 
					CHANNELS 3 Xrotation Zrotation Yrotation
					End Site
					{
						OFFSET 0.000000 3.130435 0.000000 
					}
				}
			}
			JOINT lCollar
			{
				OFFSET 3.470700 6.669187 -0.816635 
				CHANNELS 3 Yrotation Zrotation Xrotation
				JOINT lShldr
				{
					OFFSET 3.198488 0.000000 0.000000 
					CHANNELS 3 Zrotation Yrotation Xrotation
					JOINT lForeArm
					{
						OFFSET 10.139888 0.000000 0.000000 
						CHANNELS 3 Yrotation Zrotation Xrotation
						JOINT lHand
						{
							OFFSET 8.370511 0.000000 0.000000 
							CHANNELS 3 Zrotation Yrotation Xrotation
							End Site
							{
								OFFSET 4.083176 0.000000 0.000000 
							}
						}
					}
				}
			}
			JOINT rCollar
			{
				OFFSET -3.470700 6.669187 -0.816635 
				CHANNELS 3 Yrotation Zrotation Xrotation
				JOINT rShldr
				{
					OFFSET -3.198488 0.000000 0.000000 
					CHANNELS 3 Zrotation Yrotation Xrotation
					JOINT rForeArm
					{
						OFFSET -10.139888 0.000000 0.000000 
						CHANNELS 3 Yrotation Zrotation Xrotation
						JOINT rHand
						{
							OFFSET -8.370511 0.000000 0.000000 
							CHANNELS 3 Zrotation Yrotation Xrotation
							End Site
							{
								OFFSET -4.083176 0.000000 0.000000 
							}
						}
					}
				}
			}
		}
	}
	JOINT lThigh
	{
		OFFSET 5.308129 -1.633274 1.361059 
		CHANNELS 3 Xrotation Zrotation Yrotation
		JOINT lShin
		{
			OFFSET -2.041588 -20.007561 0.000000 
			CHANNELS 3 Xrotation Zrotation Yrotation
			JOINT lFoot
			{
				OFFSET 0.000000 -19.190928 -1.224953 
				CHANNELS 3 Xrotation Yrotation Zrotation
				End Site
				{
					OFFSET 0.000000 -2.449906 4.627600 
				}
			}
		}
	}
	JOINT rThigh
	{
		OFFSET -5.308129 -1.633274 1.361059 
		CHANNELS 3 Xrotation Zrotation Yrotation
		JOINT rShin
		{
			OFFSET 2.041588 -20.007561 0.000000 
			CHANNELS 3 Xrotation Zrotation Yrotation
			JOINT rFoot
			{
				OFFSET 0.000000 -19.190928 -1.224953 
				CHANNELS 3 Xrotation Yrotation Zrotation
				End Site
				{
					OFFSET 0.000000 -2.449906 4.627600 
				}
			}
		}
	}
}
MOTION
Frames: 13
Frame Time: 0.033333
0.576476 41.204586 58.686966 9.533472 -2.860400 -23.664145 21.746519 -0.321930 0.681046 -20.839844 0.000000 0.000000 1.262223 -1.007554 19.524038 -2.520832 -1.255077 0.218355 -4.754609 -0.109184 -0.002653 -17.106371 -2.489681 -13.572087 -79.167046 -0.198292 3.240218 5.832899 -6.732442 -0.096997 4.754609 0.109184 -0.002672 54.890987 7.983301 32.164772 116.510025 -0.406196 16.310171 -22.832180 -1.529552 0.507212 -22.282494 35.051601 12.305026 2.976324 -4.384847 -2.615946 14.890470 -0.671724 -8.466536 -8.230522 -16.469648 -4.018416 19.971849 2.633639 -11.229533 -10.987211 -3.751700 20.628325 
0.265471 41.232174 57.926025 9.467868 -1.849477 -25.552668 21.746925 -0.317876 0.588051 -20.839844 0.000000 0.000000 1.569700 -0.941462 20.368446 -2.520832 -1.255077 0.218355 -4.754609 -0.109184 -0.002653 -18.836630 -7.856890 -4.014219 -61.930733 -0.289973 -1.444353 16.262209 -11.687263 -1.017199 4.754609 0.109184 -0.002672 55.230667 3.009679 27.079018 115.541763 -0.183058 9.116866 -21.600155 2.237976 -0.188030 -24.869282 34.357971 9.766242 9.064891 -4.930178 -9.356220 11.264911 -0.700683 -15.191201 -11.219623 -16.853159 -2.892379 22.328325 2.742399 -9.713512 -11.851850 -4.037400 20.692783 
0.122008 41.106266 57.390305 8.644669 -1.255113 -27.534723 21.864367 -0.336691 0.527703 -20.839844 0.000000 0.000000 2.875420 -1.377380 21.677320 -2.520832 -1.255077 0.218355 -4.754609 -0.109184 -0.002653 -20.414066 -11.291791 3.944497 -45.277771 -0.465805 -12.965899 22.093615 -19.596426 -2.705034 4.754609 0.109184 -0.002672 56.755112 1.313571 22.383997 111.491142 0.252721 -4.726264 -17.114351 2.895690 -0.272148 -28.257772 33.489807 9.295244 19.362520 -4.759619 -12.042967 6.703618 -0.823880 -13.521619 -13.738071 -17.067568 -0.181890 25.513458 2.713629 -9.393255 -12.723926 -4.328370 20.794498 
0.041731 40.859478 57.024139 7.462480 -1.161952 -29.957043 22.030478 -0.292026 0.492718 -20.839844 0.000000 0.000000 4.408418 -2.191080 23.930901 -2.520832 -1.255077 0.218355 -4.754609 -0.109184 -0.002653 -21.680759 -11.594759 6.999495 -36.338383 -0.565806 -20.113083 23.406460 -24.315138 -3.595808 4.754609 0.109184 -0.002672 57.751968 1.990017 20.642288 107.181290 0.532621 -13.851221 -14.048071 1.776488 -0.126537 -28.581467 33.491718 11.523875 25.543785 -4.366368 -10.787357 3.762998 -0.719282 -8.382518 -15.893237 -16.762848 3.359348 29.028160 2.571794 -9.622878 -13.728380 -4.489641 20.808769 
-0.024446 40.536938 56.784363 6.788612 -1.202450 -32.457760 22.137651 -0.190357 0.554964 -20.839844 0.000000 0.000000 4.764303 -2.656349 26.247986 -2.520832 -1.255077 0.218355 -4.754609 -0.109184 -0.002653 -22.718548 -9.598992 5.401489 -36.471146 -0.552807 -19.153986 24.904390 -24.511852 -3.950923 4.754609 0.109184 -0.002672 58.046177 2.110600 21.063644 106.876755 0.538545 -13.922840 -14.459785 2.070668 -0.155003 -27.944138 34.063541 11.657653 28.090506 -4.063655 -7.316309 1.764622 -0.371502 -5.740825 -18.243616 -15.931990 6.773874 32.515408 2.405573 -9.827786 -14.806642 -4.624284 20.573015 
-0.071596 40.212917 56.667496 6.768778 -1.076431 -34.170883 22.117800 -0.120728 0.646488 -20.839844 0.000000 0.000000 4.264307 -2.460951 27.626953 -2.520832 -1.255077 0.218355 -4.754609 -0.109184 -0.002653 -23.392893 -7.646736 2.221330 -40.538723 -0.512841 -16.304241 25.435772 -22.806684 -3.790181 4.754609 0.109184 -0.002672 58.035358 1.963343 20.942011 108.674004 0.479889 -12.076899 -16.161713 2.365546 -0.202956 -28.143366 34.705006 10.287429 29.613638 -3.848842 -4.759813 0.502325 -0.081946 -6.369502 -20.493797 -15.417610 8.233197 35.399246 2.337921 -8.968610 -15.922901 -4.695335 20.137186 
-0.097200 39.980160 56.616837 6.778117 -0.863067 -34.965992 22.059061 -0.094902 0.688428 -20.839844 0.000000 0.000000 4.194264 -1.995440 27.898918 -2.520832 -1.255077 0.218355 -4.754609 -0.109184 -0.002653 -23.959352 -7.039221 0.658602 -42.728500 -0.499968 -15.747785 24.923170 -22.201036 -3.586418 4.754609 0.109184 -0.002672 57.807564 2.107390 19.957115 109.280457 0.496018 -12.484223 -17.405861 2.729084 -0.258626 -28.667841 35.090866 9.832823 30.961910 -3.775840 -4.221705 -0.187385 0.037433 -7.018194 -21.929329 -15.310506 8.866065 37.302708 2.308109 -8.211040 -16.836405 -4.779277 19.927160 
-0.088167 39.868801 56.589737 6.406676 -0.659916 -35.416004 22.009933 -0.128224 0.748531 -20.839844 0.000000 0.000000 4.926672 -1.740174 27.690554 -2.520832 -1.255077 0.218355 -4.754609 -0.109184 -0.002653 -24.619562 -7.185735 0.967170 -41.958729 -0.513728 -16.755932 24.316708 -22.863537 -3.590571 4.754609 0.109184 -0.002672 57.527794 2.060482 18.655052 108.775452 0.550625 -14.378595 -17.301088 2.954943 -0.289532 -28.434347 35.209267 10.772511 31.739923 -3.780550 -4.805884 -0.649726 0.054666 -6.990782 -22.484451 -15.485639 9.543831 38.302998 2.277373 -7.931069 -17.367716 -4.839163 19.851902 
-0.036989 39.834194 56.584732 5.957291 -0.534209 -35.612473 21.970600 -0.158086 0.799545 -20.839844 0.000000 0.000000 5.581531 -1.724028 27.378841 -2.520832 -1.255077 0.218355 -4.754609 -0.109184 -0.002653 -25.308895 -7.355130 1.891179 -40.425552 -0.531765 -17.968021 23.482079 -23.105970 -3.458760 4.754609 0.109184 -0.002672 57.298035 1.692884 17.392487 108.173210 0.601554 -16.183475 -16.419674 2.777881 -0.256870 -27.869921 35.183395 12.105284 32.049385 -3.839272 -5.678926 -1.022514 0.021536 -6.813067 -22.498749 -15.839248 9.909405 38.655914 2.277709 -7.684216 -17.657358 -4.865282 19.778139 
0.043257 39.835186 56.599762 5.674041 -0.495607 -35.430183 21.941294 -0.149001 0.803129 -20.839844 0.000000 0.000000 5.660099 -1.735812 26.826496 -2.520832 -1.255077 0.218355 -4.754609 -0.109184 -0.002653 -25.971502 -7.472660 2.769080 -39.221439 -0.548726 -19.313612 22.524870 -23.094063 -3.236000 4.754609 0.109184 -0.002672 57.190849 1.163310 16.358002 107.820595 0.622687 -16.751474 -15.636046 2.561780 -0.225597 -27.518408 35.163280 13.396898 32.144531 -3.913151 -6.734604 -1.289566 -0.029644 -6.566462 -22.201704 -16.208347 9.816196 38.557987 2.297210 -7.460471 -17.852240 -4.879879 19.740734 
0.132033 39.854259 56.631866 5.547075 -0.485995 -35.164463 21.892599 -0.129472 0.779275 -20.839844 0.000000 0.000000 5.386246 -1.589581 26.427168 -2.520832 -1.255077 0.218355 -4.754609 -0.109184 -0.002653 -26.511671 -7.511988 3.296499 -38.312523 -0.573227 -21.113726 21.617807 -23.873016 -3.162241 4.754609 0.109184 -0.002672 57.521683 0.635736 15.394361 107.707985 0.599663 -16.056454 -14.822413 2.227866 -0.178631 -27.331715 35.160866 14.561034 32.154072 -3.976163 -7.741554 -1.387608 -0.107583 -6.211099 -21.862085 -16.502356 9.705868 38.241283 2.308234 -7.400455 -17.975904 -4.918392 19.789240 
0.227843 39.883343 56.682022 5.410308 -0.427773 -34.962463 21.843874 -0.131539 0.757264 -20.839844 0.000000 0.000000 5.200091 -1.359175 26.306364 -2.520832 -1.255077 0.218355 -4.754609 -0.109184 -0.002653 -26.994886 -7.469704 3.379641 -37.920311 -0.590335 -22.630028 21.356323 -24.965433 -3.256617 4.754609 0.109184 -0.002672 57.726513 0.132657 14.810987 107.804146 0.579148 -15.407834 -14.186762 2.119814 -0.162997 -27.138882 34.990269 15.354897 32.097034 -4.033585 -8.402184 -1.419383 -0.146835 -5.933483 -21.538792 -16.784912 9.839953 37.824638 2.336009 -7.554333 -17.945215 -4.940810 19.931133 
0.336699 39.912441 56.736206 5.214912 -0.291756 -34.811836 21.814650 -0.155236 0.737181 -20.839844 0.000000 0.000000 5.248629 -1.223533 26.131502 -2.520832 -1.255077 0.218355 -4.754609 -0.109184 -0.002653 -27.445988 -7.412580 3.165089 -38.013947 -0.593963 -23.183521 21.559097 -25.365686 -3.350972 4.754609 0.109184 -0.002672 57.518997 -0.279445 14.747388 107.800293 0.570707 -15.114854 -14.061297 2.364847 -0.183454 -26.921381 34.633003 15.863542 32.006363 -4.044650 -8.727980 -1.426149 -0.182782 -5.926775 -21.244438 -17.135677 10.111894 37.423843 2.336028 -7.833606 -17.836132 -4.957167 20.007750 
